
<svg xmlns="http://www.w3.org/2000/svg" version="1.1" xmlns:xlink="http://www.w3.org/1999/xlink" xmlns:svgjs="http://svgjs.dev/svgjs" width="1500" height="1500" viewBox="0 0 1500 1500"><rect width="1500" height="1500" fill="#fafafa"></rect><g transform="matrix(0.6666666666666666,0,0,0.6666666666666666,249.3942835383873,598.2905152161132)"><svg viewBox="0 0 396 120" data-background-color="#fafafa" preserveAspectRatio="xMidYMid meet" height="454" width="1500" xmlns="http://www.w3.org/2000/svg" xmlns:xlink="http://www.w3.org/1999/xlink"><g id="tight-bounds" transform="matrix(1,0,0,1,0.239863718798631,0.14913493634276165)"><svg viewBox="0 0 395.52 119.70173012731446" height="119.70173012731446" width="395.52"><g><svg viewBox="0 0 701.2895428163013 212.2410285075461" height="119.70173012731446" width="395.52"><g><svg viewBox="0 0 395.52 212.2410285075461" height="212.2410285075461" width="395.52"><g id="textblocktransform"><svg viewBox="0 0 395.52 212.2410285075461" height="212.2410285075461" width="395.52" id="textblock"><g><svg viewBox="0 0 395.52 212.2410285075461" height="212.2410285075461" width="395.52"><g transform="matrix(1,0,0,1,0,0)"><svg width="395.52" viewBox="4 -37 89.45 48" height="212.2410285075461" data-palette-color="#130912"><g class="wordmark-text-0" data-fill-palette-color="primary" id="text-0"><path d="M8.5 0L4 0 4-26 8.35-26 8.35-21.65Q9.75-23.75 11.9-25.18 14.05-26.6 16.8-26.6L16.8-26.6Q19.9-26.6 21.88-25.1 23.85-23.6 24.65-21.1L24.65-21.1Q26.2-23.4 28.33-25 30.45-26.6 33.6-26.6L33.6-26.6Q37.85-26.6 39.93-23.93 42-21.25 42-16.95L42-16.95 42 0 37.5 0 37.5-16.6Q37.5-19.3 36.25-20.98 35-22.65 32.8-22.65L32.8-22.65Q30.55-22.65 28.63-20.98 26.7-19.3 25.25-17.05L25.25-17.05 25.25 0 20.75 0 20.75-16.6Q20.75-19.3 19.5-20.98 18.25-22.65 16.05-22.65L16.05-22.65Q13.85-22.65 11.9-21.03 9.95-19.4 8.5-17.2L8.5-17.2 8.5 0ZM55.2 11L50.7 11 50.7-19.35Q50.7-21.05 49.87-21.78 49.05-22.5 47.75-22.5L47.75-22.5 48.7-26Q53.3-26 54.45-22.35L54.45-22.35Q54.95-23.1 56.07-24.1 57.2-25.1 58.87-25.85 60.55-26.6 62.7-26.6L62.7-26.6Q65.7-26.6 68.32-25.03 70.95-23.45 72.55-20.48 74.15-17.5 74.15-13.25L74.15-13.25Q74.15-9.1 72.55-5.98 70.95-2.85 68.37-1.13 65.8 0.6 62.8 0.6L62.8 0.6Q60.5 0.6 58.5-0.33 56.5-1.25 55.2-2.45L55.2-2.45 55.2 11ZM61.9-3.4L61.9-3.4Q65.3-3.4 67.42-6.08 69.55-8.75 69.55-13.1L69.55-13.1Q69.55-16.1 68.47-18.25 67.4-20.4 65.62-21.55 63.85-22.7 61.7-22.7L61.7-22.7Q59.55-22.7 57.82-21.63 56.1-20.55 55.2-19.3L55.2-19.3 55.2-6.5Q56.5-5.15 58.2-4.28 59.9-3.4 61.9-3.4ZM88.3 0.6L88.3 0.6Q86 0.6 84.15-0.28 82.3-1.15 81.22-3.1 80.15-5.05 80.15-8.15L80.15-8.15 80.15-37 84.65-37 84.65-8.6Q84.65-5.9 85.77-4.6 86.9-3.3 88.9-3.3L88.9-3.3Q89.85-3.3 90.77-3.53 91.7-3.75 92.35-4.05L92.35-4.05 93.45-0.4Q92.55 0 91.22 0.3 89.9 0.6 88.3 0.6Z" fill="#130912" data-fill-palette-color="primary"></path></g></svg></g></svg></g></svg></g></svg></g><g transform="matrix(1,0,0,1,495.7300260918949,3.3407558915698417)"><svg viewBox="0 0 205.55951672440642 205.55951672440642" height="205.55951672440642" width="205.55951672440642"><g><svg></svg></g><g id="icon-0"><svg viewBox="0 0 205.55951672440642 205.55951672440642" height="205.55951672440642" width="205.55951672440642"><g><path d="M0 102.78c0-56.764 46.016-102.78 102.78-102.78 56.764 0 102.78 46.016 102.78 102.78 0 56.764-46.016 102.78-102.78 102.78-56.764 0-102.78-46.016-102.78-102.78zM102.78 186.419c46.193 0 83.64-37.447 83.639-83.639 0-46.193-37.447-83.64-83.639-83.64-46.193 0-83.64 37.447-83.64 83.64 0 46.193 37.447 83.64 83.64 83.639z" data-fill-palette-color="accent" fill="#e78c1b" stroke="transparent"></path></g><g transform="matrix(1,0,0,1,63.28268788206781,78.50659663912246)"><svg viewBox="0 0 78.9941409602708 48.54632344616149" height="48.54632344616149" width="78.9941409602708"><g><svg xmlns="http://www.w3.org/2000/svg" data-name="Layer 1" viewBox="2.430551295781235 20.791724898981606 95.13905147020833 58.4682751010184" x="0" y="0" height="48.54632344616149" width="78.9941409602708" class="icon-dxe-0" data-fill-palette-color="accent" id="dxe-0"><path d="M62.78 23L94.78 78.42 96.08 76.16H32.08L33.38 78.42 65.37 23A1.5 1.5 0 0 0 62.78 21.49L30.79 77A1.51 1.51 0 0 0 32.09 79.26H96.09A1.51 1.51 0 0 0 97.37 77L65.37 21.58A1.5 1.5 0 0 0 62.78 23" fill="#e78c1b" data-fill-palette-color="accent"></path><path d="M34.63 23L66.63 78.42 67.93 76.16H3.93L5.23 78.42 37.22 23A1.5 1.5 0 0 0 34.63 21.49L2.63 77A1.51 1.51 0 0 0 3.93 79.26H67.93A1.51 1.51 0 0 0 69.21 77L37.21 21.58A1.5 1.5 0 0 0 34.63 23" fill="#e78c1b" data-fill-palette-color="accent"></path></svg></g></svg></g></svg></g></svg></g></svg></g><defs></defs></svg><rect width="395.52" height="119.70173012731446" fill="none" stroke="none" visibility="hidden"></rect></g></svg></g></svg>